<svg xmlns="http://www.w3.org/2000/svg" viewBox="0 0 64 64">
  <defs>
    <linearGradient id="g" x1="0" y1="0" x2="1" y2="1">
      <stop offset="0" stop-color="#7C6CFF"/>
      <stop offset="1" stop-color="#4F3BDB"/>
    </linearGradient>
  </defs>
  <rect width="64" height="64" rx="18" fill="url(#g)"/>
  <path d="M30 13c1.2 7.8 4.9 11.6 12.9 12.9-8 1.3-11.7 5-12.9 12.9-1.2-7.9-4.9-11.6-12.9-12.9C25.1 24.6 28.8 20.8 30 13z" fill="#fff"/>
  <path d="M44.5 36c.6 3.7 2.3 5.5 6 6.1-3.7.6-5.4 2.4-6 6.1-.6-3.7-2.3-5.5-6-6.1 3.7-.6 5.4-2.4 6-6.1z" fill="#FFD166"/>
  <circle cx="21" cy="45" r="3.2" fill="#fff" fill-opacity=".55"/>
</svg>
